<?xml version="1.0" encoding="UTF-8"?>
<svg width="1024" height="1024" viewBox="-204 -173 1024 1024" xmlns="http://www.w3.org/2000/svg">
    <defs>
        <linearGradient id="gradient" x1="0" y1="0" x2="0" y2="1">
            <stop offset="0%" stop-color="#00CBFF" />
            <stop offset="100%" stop-color="#00FFDB" />
        </linearGradient>
        <clipPath id="clip-path">
            <path d="M 268.264069 0.561157 C 273.422577 0.538208 273.422577 0.538208 278.685333 0.514771 C 290.088348 0.471375 301.491028 0.462585 312.894104 0.457703 C 320.806824 0.443115 328.719574 0.427734 336.632263 0.411743 C 353.235657 0.384399 369.838928 0.375977 386.442352 0.378723 C 407.722809 0.379211 429.002563 0.316956 450.282898 0.238464 C 466.632202 0.187805 482.981354 0.178589 499.330719 0.180969 C 507.176208 0.175598 515.02179 0.155396 522.867188 0.120239 C 533.842102 0.075623 544.815491 0.088684 555.790405 0.11615 C 560.65625 0.077759 560.65625 0.077759 565.620483 0.038513 C 582.104065 0.143494 594.826111 0.733337 608.573425 10.337402 C 614.980896 23.152405 614.249695 34.217224 614.554688 48.503357 C 614.810181 56.310486 614.810181 56.310486 615.070923 64.27533 C 612.696533 81.919739 608.622803 85.985596 594.902039 96.922852 C 583.742493 99.216736 583.742493 99.216736 571.033875 99.237549 C 566.203735 99.28894 561.373596 99.340332 556.397156 99.393311 C 548.484619 99.338013 548.484619 99.338013 540.412292 99.281555 C 532.051575 99.329407 532.051575 99.329407 523.521851 99.378296 C 508.248535 99.444824 492.979767 99.429199 477.706726 99.37146 C 461.719452 99.325256 445.732361 99.368042 429.745087 99.396667 C 402.897797 99.429871 376.051422 99.386169 349.204285 99.299316 C 318.171143 99.200073 287.140198 99.2323 256.107147 99.332642 C 229.456512 99.415405 202.806534 99.427002 176.155823 99.379272 C 160.241226 99.350952 144.327682 99.347107 128.413162 99.407288 C 110.67244 99.469788 92.934158 99.383179 75.193573 99.281555 C 69.918571 99.31842 64.64357 99.355286 59.208721 99.393311 C 51.963562 99.316223 51.963562 99.316223 44.572033 99.237549 C 38.281242 99.227295 38.281242 99.227295 31.863375 99.216736 C 17.152126 96.19281 11.677571 90.336853 2.475333 78.694336 C -0.173772 62.799744 0.045997 54.99823 9.033994 41.506348 C 26.641758 28.857422 42.71682 30.802979 63.87196 31.147095 C 72.472954 31.103394 81.073944 31.058777 89.674919 31.013611 C 103.216568 31.052917 116.75724 31.129822 130.298569 31.23053 C 143.381149 31.29657 156.457993 31.227356 169.540375 31.147095 C 173.599274 31.222229 177.658142 31.297302 181.840027 31.374695 C 192.417282 31.288696 201.825226 31.072388 212.103241 28.565918 C 221.40564 17.884644 221.40564 17.884644 225.774628 5.780273 C 239.389236 -1.027039 253.333969 0.551697 268.264069 0.561157 Z M 581.230652 156.165527 L 34.375229 156.165527 C 34.375229 163.575623 34.349079 170.952789 34.323006 178.308075 C 34.217018 208.206787 34.112312 237.74353 35.770615 267.655334 L 36.394562 277.700439 C 37.067307 289.470398 37.746521 301.239563 38.455765 313.007324 C 38.959091 321.32489 39.454926 329.642944 39.943909 337.961365 C 40.968735 355.498199 41.99942 373.034668 43.051758 390.569916 C 44.414322 413.171143 45.766098 435.772797 47.082016 458.376801 C 48.117325 476.179504 49.161316 493.981659 50.218445 511.783081 C 50.723648 520.255981 51.227997 528.729004 51.731491 537.202026 C 52.436554 549.306885 53.143616 561.411499 53.876404 573.514771 C 54.106049 577.281921 54.328979 580.938232 54.55188 584.594604 C 55.942749 608.885071 55.75531 630.166687 69.408173 650.898804 C 85.46405 667.822571 100.267426 674.968384 123.552856 677.322266 L 141.768158 677.230225 C 152.339203 677.236572 162.906738 677.223267 173.477386 677.123657 C 181.009827 677.049744 188.542633 677.000488 196.075409 676.975281 C 215.843597 676.93988 235.610535 676.858337 255.378174 676.709534 C 275.852417 676.554443 296.326324 676.457764 316.801086 676.386536 C 360.892761 676.238037 404.983154 675.995239 449.073914 675.678162 L 446.133362 666.390381 L 442.327271 654.103027 C 439.84259 646.157349 437.526733 638.156433 435.402527 630.106934 C 431.20459 595.690308 441.300354 567.221985 460.039551 538.786316 C 484.787231 508.336975 514.628784 499.245728 552.481567 494.425507 L 563.002136 493.393036 C 567.181091 472.138 568.819946 451.078278 570.159973 429.504456 L 570.994934 415.263214 C 571.605591 405.113647 572.213745 394.963959 572.81958 384.814117 C 573.742859 368.967224 574.670959 353.121033 575.639954 337.276917 C 576.275411 326.913635 576.899923 316.549683 577.513489 306.185059 L 578.400269 291.081482 C 581.19397 245.969727 581.230652 201.522766 581.230652 156.165527 Z M 608.288635 578.839233 C 598.687988 565.212524 590.90979 558.634277 576.192871 551.229431 C 551.003296 542.036499 529.996094 547.296997 508.316589 561.75 C 493.445313 577.795349 488.774963 590.477783 487.80954 611.878357 C 488.774963 633.278992 493.445313 645.961426 508.316589 662.006775 C 528.263367 675.304626 543.792175 678.596924 567.559265 675.678162 C 585.931641 668.973206 596.988403 660.956604 608.288635 644.917542 C 616.085999 621.066711 616.085999 602.690063 608.288635 578.839233 Z"/>
        </clipPath>
    </defs>
    <rect width="616" height="678" fill="url(#gradient)" clip-path="url(#clip-path)" />
</svg>
